<svg width="1000" height="1000" xmlns="http://www.w3.org/2000/svg" stroke="null">
 <g id="Layer_1" stroke="null">
  <title stroke="null">Layer 1</title>
  <g stroke="null">
   <path stroke="null" fill="black" d="m865.99434,153.11349l3.16014,3.44896c65.90163,72.76168 102.45666,167.46877 102.45666,265.74908l0,577.52053l-103.27251,-58.16308l0,-519.35745c0,-26.43432 -3.58356,-61.13044 -10.48216,-97.17151c-10.88148,22.10273 -25.24669,42.55757 -42.75482,60.50633l-2.05857,2.08266l-231.6127,231.6127c-12.67842,12.67842 -22.72339,27.49803 -29.79412,43.6051l0,278.72218l-51.63625,58.16308l-51.63625,-58.16308l0,-274.63603c-6.68517,-16.6131 -16.48573,-31.96284 -29.04023,-45.15074l-2.4751,-2.5405l-231.61098,-231.6127c-16.68884,-16.68884 -30.61514,-35.62213 -41.49076,-56.09074c-7.94269,37.44317 -12.08529,73.76067 -12.08529,102.20536l0,507.82535l-103.27251,58.16308l0,-565.98843c0,-107.70531 43.88669,-210.76267 121.53694,-285.40287l154.24989,-148.27282l141.84376,152.94555l3.16014,3.44896c21.12956,23.32788 39.23667,48.9133 54.09414,76.14695c18.114,-30.71083 40.4484,-59.1063 66.62798,-84.26865l154.24782,-148.27282l141.84479,152.94555zm-644.50067,4.72988c-18.05651,17.35667 -33.64309,43.23056 -46.52633,73.02365c2.42105,43.41852 20.73815,84.57089 51.64968,115.4807l221.74673,221.74673l0,-145.78292c0,-72.64188 -27.01953,-207.69272 -75.72629,-261.47291l-2.33671,-2.54808l-70.3544,-75.86089l-78.45268,75.41372zm419.9759,0c-57.39542,55.16921 -89.83331,196.39092 -89.83331,276.00026l0,132.52961l220.02552,-220.02552l1.54565,-1.5663c32.27954,-33.08851 50.37977,-77.50671 50.37977,-123.79104l0,-9.96752c-9.05356,-20.03177 -19.40146,-37.40358 -30.97487,-50.18424l-2.3374,-2.54808l-70.35268,-75.86089l-78.45268,75.41372z" clip-rule="evenodd" fill-rule="evenodd"/>
  </g>
 </g>

</svg>