<svg width="1000" height="1000" xmlns="http://www.w3.org/2000/svg" stroke="null" style="vector-effect: non-scaling-stroke;">
 <g stroke="null" id="Layer_1">
  <title stroke="null">Layer 1</title>
  <path stroke="null" d="m39.34479,799.53467c0.00872,-116.84155 -0.24821,-230.85737 0.08373,-344.87149c0.64575,-221.79943 156.91602,-408.72956 378.0501,-447.26605c268.77086,-46.8381 507.67091,138.09168 538.40815,385.64145c2.91752,23.49752 4.59153,46.78386 4.6022,70.30621c0.0632,138.51416 0.19917,277.0286 -0.10518,415.54209c-0.04794,21.85755 2.82427,38.8074 26.09042,51.13204c23.47375,12.43493 8.28017,37.75199 8.623,56.96467c0.29403,16.48942 -16.62783,11.9663 -27.08479,12.00997c-85.99118,0.35902 -172.00071,-0.71335 -257.9682,0.73823c-27.5226,0.46444 -34.57394,-10.35603 -33.78952,-35.06069c1.34237,-42.27386 0.37053,-84.61899 0.37053,-126.76153c-11.47995,-3.12883 -14.95754,5.26559 -19.84029,10.00526c-44.9294,43.61358 -90.51911,86.62788 -133.87147,131.72889c-17.83898,18.55832 -28.79563,17.16957 -45.84176,-0.30965c-43.02507,-44.11874 -87.77823,-86.59971 -131.93267,-129.64354c-5.23436,-5.10282 -11.05133,-9.62452 -21.8139,-18.92028c0,47.58329 -1.31438,89.53167 0.4659,131.35172c1.17067,27.50009 -6.86812,38.38939 -36.85804,37.73751c-84.04114,-1.82678 -168.15018,-0.48757 -252.23026,-0.85695c-12.41199,-0.05452 -30.08329,4.70308 -31.47996,-14.86302c-1.38028,-19.33467 -10.37088,-43.01345 13.03904,-55.56489c18.05083,-9.67819 23.28072,-23.08845 23.07002,-41.41053c-0.32528,-28.26394 -0.02294,-56.53484 0.01296,-87.62944m446.75192,-728.4191c-22.09273,-0.71352 -43.9122,1.85387 -65.38172,6.56062c-106.60775,23.37174 -190.76146,79.174 -249.85102,170.24123c-5.63804,8.68919 -18.03202,19.64042 -7.69199,30.19671c31.39342,32.05041 64.49654,62.4721 99.0051,95.51134c48.19514,-105.80193 124.27623,-164.58331 239.60625,-163.98251c114.98328,0.59899 189.39369,61.75705 242.48477,166.56862c28.26286,-25.53418 50.59537,-55.25033 77.20238,-80.60403c19.04624,-18.14919 20.62661,-31.2546 5.62777,-52.36786c-81.73244,-115.05306 -192.86789,-173.10356 -341.00154,-172.12412m-19.97816,209.83347c-73.43381,17.22675 -120.64225,60.76918 -139.46374,133.69605c-3.76439,14.58618 -0.75575,25.05848 10.00717,35.4088c48.50706,46.64818 96.89546,93.42853 144.5432,140.9259c13.47513,13.4327 22.86872,15.24721 37.31362,0.62557c47.26677,-47.84576 95.66515,-94.61118 144.00211,-141.41659c11.4768,-11.11315 13.82478,-22.31085 10.22579,-38.0354c-17.99021,-78.60357 -95.89684,-146.30642 -206.62816,-131.20433m324.23246,647.75919c21.95676,-0.04677 44.01738,-1.43303 65.84269,0.21333c24.88385,1.87717 33.50146,-6.92717 33.08855,-31.96512c-1.30349,-79.06038 -0.28055,-158.15616 -0.57647,-237.2369c-0.04026,-10.75944 3.28185,-22.25605 -6.76942,-37.50948c-43.02805,43.64842 -84.73277,85.97635 -126.47029,128.27289c-7.45422,7.55415 -7.04716,17.07252 -7.05588,26.49259c-0.03624,38.59927 1.79112,77.31091 -0.6395,115.76138c-1.83351,29.00116 8.41562,40.35411 42.58032,35.97131m-679.1272,-275.84448c0.02208,82.90419 0.37615,165.81059 -0.18885,248.71071c-0.12663,18.59282 5.12499,28.11774 25.86114,27.36475c29.57483,-1.07424 59.24199,-1.0489 88.82353,-0.09807c20.25802,0.65125 26.51291,-7.87217 26.0337,-27.01404c-1.03681,-41.42727 -0.32901,-82.89661 -0.38028,-124.34888c-0.01055,-8.46144 0.86018,-17.42656 -5.84484,-24.05404c-42.26112,-41.77215 -84.68264,-83.38622 -127.71815,-125.70844c-7.29055,7.41582 -6.12367,14.18915 -6.58625,25.14801m497.30118,143.49776c10.14005,-9.97461 20.64043,-19.62198 30.33103,-30.00453c12.77925,-13.69224 34.99798,-23.64547 35.80041,-42.51112c2.57222,-60.46965 0.95578,-121.1126 0.95578,-181.68863c-3.07993,-1.83696 -6.15986,-3.67392 -9.23973,-5.51076c-11.3972,13.77532 -21.9641,28.33 -34.3555,41.17248c-30.88497,32.00929 -73.25603,58.36252 -91.03107,96.13324c-18.33723,38.96587 -4.24486,88.88975 -5.17976,134.00705c-0.35321,17.04045 -2.46176,34.54297 2.23827,51.1929c2.96563,1.79415 5.93126,3.58846 8.89672,5.38278c19.61726,-21.73912 39.23441,-43.47807 61.58384,-68.1734m-241.77995,-218.96498c-12.62682,-10.77969 -21.58256,-25.88421 -36.74747,-32.71964c-6.79494,3.83556 -6.31206,8.95778 -6.32347,13.44091c-0.13053,51.77696 -0.22716,103.55522 0.13213,155.33003c0.04393,6.30188 0.72036,14.56842 4.63197,18.57257c42.62655,43.63637 85.95648,86.60424 129.09516,129.75399c2.31266,-1.25838 4.62531,-2.5166 6.93797,-3.77504c0,-17.63678 0.42387,-35.28539 -0.08333,-52.90798c-1.27045,-44.14176 13.06279,-93.01182 -5.25271,-131.12176c-17.73518,-36.90257 -58.74793,-62.92495 -92.39024,-96.57308m449.82032,-181.02302c-51.85687,38.83075 -80.41324,86.44294 -69.1995,154.25466c5.36684,32.4545 0.92372,66.48649 0.92372,104.98084c30.3928,-21.64902 49.90247,-44.75285 71.20448,-65.8129c74.78805,-73.93844 75.12566,-74.14091 68.02092,-176.09999c-1.56993,-22.5265 -2.70768,-46.18221 -20.88829,-73.57552c-17.26853,19.54913 -32.23152,36.48812 -50.06133,56.25291m-573.49313,254.09088c15.4559,-2.78055 7.85573,-14.85403 8.02353,-22.29654c0.84624,-37.56773 -2.04398,-75.35524 1.009,-112.69754c3.02636,-37.01947 -7.99663,-64.79929 -37.30783,-88.08896c-29.96257,-23.80717 -52.30236,-56.31721 -88.21202,-79.66621c-20.57769,59.74816 -16.99888,117.46288 -12.44554,175.03198c0.46883,5.92725 9.10255,11.49015 14.43836,16.73686c37.08767,36.46872 74.30494,72.80918 114.4945,110.98042z" fill="#000000"/>
 </g>

</svg>