<svg width="854" height="890" viewBox="0 0 854 890" fill="none" xmlns="http://www.w3.org/2000/svg">
<g clip-path="url(#clip0_30_2)">
<path fill-rule="evenodd" clip-rule="evenodd" d="M744.781 132.007C814.559 198.459 854 290.21 854 386.102V890L761.192 838.216V386.102C761.192 360.775 757.47 328.444 750.332 295.107C740.56 313.329 728.049 330.187 713.047 345.045L504.913 551.25L502.686 553.509C491.407 565.253 478.417 580.973 476.59 607.275V838.216L427.123 889.744V890L427 889.872L426.877 890V889.744L377.41 838.216V607.275C375.583 580.973 362.593 565.253 351.314 553.509L349.087 551.25L140.951 345.045C125.954 330.187 113.44 313.329 103.666 295.107C96.529 328.444 92.8063 360.775 92.8063 386.102V838.216L0 890V386.102C4.90492e-05 290.21 39.4389 198.459 109.219 132.007L247.835 0L378.144 139.238C397.072 159.943 413.669 183.01 427 207.175C440.331 183.01 456.928 159.943 475.856 139.238L606.165 0L744.781 132.007ZM173.534 140.378C157.307 155.83 138.347 178.883 133.908 208.679C129.469 247.757 150.359 280.684 178.137 308.204L377.41 505.622V375.833C377.41 311.161 369.327 217.28 303.29 136.25L244.035 73.2377L173.534 140.378ZM550.71 136.25C484.673 217.28 476.59 311.161 476.59 375.833V505.622L675.863 308.204C703.641 280.684 724.534 247.757 720.093 208.679C715.652 178.883 696.693 155.83 680.466 140.378L609.965 73.2377L550.71 136.25Z" fill="black"/>
</g>
<defs>
<clipPath id="clip0_30_2">
<rect width="854" height="890" fill="white"/>
</clipPath>
</defs>
</svg>
